<?xml version="1.0" standalone="no"?>
<!DOCTYPE svg PUBLIC "-//W3C//DTD SVG 20010904//EN"
 "http://www.w3.org/TR/2001/REC-SVG-20010904/DTD/svg10.dtd">
<svg version="1.0" xmlns="http://www.w3.org/2000/svg"
 width="260.000000pt" height="260.000000pt" viewBox="0 0 260.000000 260.000000"
 preserveAspectRatio="xMidYMid meet">
<metadata>
Created by potrace 1.11, written by Peter Selinger 2001-2013
</metadata>
<g transform="translate(0.000000,260.000000) scale(0.100000,-0.100000)"
fill="#000000" stroke="none">
<path d="M315 2528 c12 -127 77 -375 109 -417 9 -12 7 -13 -11 -9 -32 8 -29
-3 13 -43 20 -18 45 -52 56 -73 25 -48 79 -126 130 -188 45 -54 182 -161 235
-183 111 -47 118 -47 413 -50 157 -1 312 2 344 6 198 26 401 196 530 443 19
37 27 45 32 33 11 -30 24 -7 24 43 0 27 9 73 20 102 27 75 67 250 75 336 6 60
5 72 -8 72 -11 0 -16 -19 -20 -82 -10 -155 -71 -353 -126 -410 -31 -34 -33
-43 -8 -39 11 2 9 -6 -18 -59 -101 -200 -299 -374 -467 -409 -65 -14 -611 -14
-676 0 -111 23 -258 122 -350 235 -88 107 -126 177 -135 242 -6 49 -14 63 -26
44 -17 -28 -100 275 -108 396 -5 63 -9 82 -20 82 -13 0 -14 -12 -8 -72z"/>
<path d="M797 2528 c-51 -83 -92 -196 -102 -280 -7 -52 -9 -57 -26 -48 -17 10
-17 8 2 -46 10 -32 19 -72 19 -90 0 -169 130 -369 267 -411 69 -21 137 -22
255 -6 69 10 107 10 175 0 199 -27 281 -8 378 87 95 93 145 216 145 356 0 61
6 70 29 48 11 -11 12 -8 6 12 -4 14 -13 34 -20 46 -8 12 -19 49 -25 83 -6 33
-22 90 -35 126 -31 81 -102 195 -121 195 -17 0 -13 -8 22 -55 32 -43 89 -170
104 -234 12 -50 10 -125 -5 -164 -6 -13 -3 -16 9 -11 19 7 21 -28 6 -121 -33
-207 -171 -353 -338 -358 -20 -1 -83 5 -140 13 -87 12 -117 12 -205 0 -127
-18 -162 -17 -234 6 -45 14 -70 31 -118 79 -71 71 -110 155 -127 275 -9 67 -8
84 6 119 20 51 20 62 1 55 -16 -7 -15 7 7 111 13 59 69 186 102 230 36 47 39
55 22 55 -8 0 -35 -33 -59 -72z"/>
<path d="M1170 2259 c-72 -20 -116 -41 -170 -81 -23 -18 -25 -18 -37 -2 -9 12
-13 13 -13 5 0 -8 -19 -52 -42 -100 -39 -79 -42 -92 -43 -166 0 -73 3 -85 34
-138 39 -68 65 -88 125 -94 37 -5 59 2 138 38 122 57 154 57 274 1 51 -23 106
-42 125 -42 55 0 100 29 136 89 56 95 54 219 -7 311 -27 40 -28 46 -12 51 13
6 9 10 -19 23 -20 8 -63 31 -96 50 -69 41 -196 76 -267 75 -28 0 -85 -9 -126
-20z m281 -31 c91 -30 132 -59 153 -107 19 -40 36 -54 36 -28 1 23 48 -46 60
-87 6 -23 10 -68 8 -101 l-3 -60 -16 35 c-20 43 -34 56 -87 74 -37 13 -47 13
-84 0 -56 -19 -74 -37 -92 -91 -11 -32 -12 -51 -5 -70 5 -14 8 -28 5 -30 -2
-2 -32 6 -67 17 l-63 21 -59 -21 c-32 -12 -61 -20 -63 -17 -3 2 0 16 5 30 8
19 6 38 -5 69 -19 56 -37 74 -90 92 -39 13 -49 13 -89 -1 -44 -15 -85 -53 -85
-79 0 -7 -5 -16 -11 -20 -8 -5 -10 16 -7 72 5 103 27 149 85 177 45 22 53 33
27 39 -23 4 66 58 140 85 86 30 218 31 307 1z m-332 -332 l25 -25 -24 -26
c-24 -25 -25 -25 -40 -7 -8 11 -23 22 -32 25 -20 7 -24 32 -6 43 8 5 6 10 -8
16 -13 6 -6 7 20 3 24 -2 50 -14 65 -29z m520 0 l25 -25 -24 -26 c-24 -25 -25
-25 -40 -7 -8 11 -23 22 -32 25 -20 7 -24 32 -6 43 8 5 6 10 -8 16 -13 6 -6 7
20 3 24 -2 50 -14 65 -29z"/>
<path d="M0 2186 c0 -21 62 -98 153 -192 50 -53 56 -62 40 -68 -14 -6 -7 -13
39 -39 32 -18 99 -66 150 -107 51 -42 119 -93 151 -114 93 -61 241 -125 349
-152 95 -23 113 -24 417 -25 305 0 322 1 418 25 199 49 407 169 596 345 32 30
47 39 47 27 0 -28 14 -17 34 27 11 23 41 65 66 92 91 99 142 164 138 179 -2
10 -29 -16 -73 -70 -85 -104 -132 -148 -182 -170 -33 -14 -35 -17 -19 -23 17
-6 7 -18 -65 -80 -183 -156 -358 -255 -534 -302 -86 -23 -104 -24 -425 -24
-321 0 -339 1 -425 24 -106 28 -247 91 -336 151 -127 85 -245 188 -270 235
-23 44 -39 57 -39 33 0 -17 -51 34 -138 137 -41 50 -79 94 -84 100 -5 5 -8 1
-8 -9z"/>
<path d="M2 1739 c5 -16 78 -56 201 -109 49 -21 84 -41 78 -44 -24 -15 -8 -25
52 -29 34 -2 100 -18 147 -34 277 -100 485 -124 965 -112 248 6 363 19 510 60
92 24 203 61 257 83 47 20 59 20 52 1 -9 -23 1 -18 51 25 25 22 50 40 55 40
17 0 218 98 225 110 14 22 -2 19 -70 -14 -163 -79 -182 -86 -233 -86 -28 0
-54 -4 -57 -10 -3 -5 -1 -10 4 -10 22 0 10 -16 -21 -29 -156 -62 -325 -106
-496 -131 -117 -16 -194 -20 -422 -20 -371 0 -526 21 -795 107 -99 32 -132 48
-168 81 -21 20 -30 23 -36 14 -6 -10 -16 -9 -48 2 -22 8 -49 19 -59 25 -15 9
-152 74 -188 90 -5 2 -7 -3 -4 -10z"/>
<path d="M0 1442 c0 -16 59 -30 191 -43 110 -12 119 -14 113 -32 -5 -17 -3
-18 28 -11 40 11 123 9 288 -6 195 -18 911 -24 1165 -11 228 12 406 28 439 38
15 4 18 1 13 -11 -8 -21 9 -20 47 3 20 12 68 23 136 30 58 7 122 17 143 22 46
12 51 34 5 25 -97 -20 -256 -34 -293 -26 -53 13 -55 12 -49 -4 8 -21 -8 -23
-256 -43 -318 -25 -1025 -25 -1339 0 -123 10 -231 22 -240 27 -9 5 -31 17 -50
26 -31 15 -33 15 -28 0 4 -9 1 -16 -6 -16 -21 0 -240 28 -274 36 -21 4 -33 3
-33 -4z"/>
<path d="M765 1259 c-77 -4 -194 -13 -260 -19 -83 -7 -131 -8 -155 0 -47 14
-52 13 -46 -8 6 -17 -5 -20 -113 -31 -65 -6 -135 -16 -155 -22 -46 -13 -49
-34 -3 -25 34 8 253 36 274 36 7 0 10 -7 6 -16 -5 -15 -3 -15 28 0 19 9 41 21
50 26 9 5 117 17 240 27 314 25 1021 25 1339 0 248 -20 264 -22 256 -43 -6
-16 -4 -17 49 -4 37 8 196 -6 293 -26 46 -9 41 13 -5 25 -21 5 -85 15 -143 22
-68 7 -116 18 -136 30 -38 23 -55 24 -47 3 5 -12 2 -15 -13 -11 -122 38 -1037
60 -1459 36z"/>
<path d="M1055 1189 c-216 -10 -380 -42 -575 -112 -47 -16 -113 -32 -148 -34
-59 -5 -75 -14 -51 -29 7 -4 -11 -16 -42 -29 -98 -40 -227 -103 -234 -115 -13
-22 2 -19 61 9 187 92 224 106 235 89 6 -9 15 -6 36 14 36 33 69 49 168 81
269 86 424 107 795 107 228 0 305 -4 422 -20 171 -25 340 -69 496 -131 31 -13
43 -29 21 -29 -5 0 -7 -4 -4 -10 3 -5 29 -10 57 -10 51 0 70 -7 233 -86 68
-33 84 -36 70 -14 -7 12 -208 110 -225 110 -5 0 -30 18 -55 40 -50 43 -60 48
-51 25 7 -19 -5 -19 -52 1 -203 84 -442 135 -672 140 -80 3 -190 5 -245 7 -55
1 -163 -1 -240 -4z"/>
<path d="M1035 1109 c-118 -7 -230 -37 -348 -92 -116 -55 -183 -98 -305 -197
-51 -41 -118 -89 -150 -107 -46 -26 -53 -33 -39 -39 16 -6 10 -15 -40 -68 -93
-96 -155 -174 -151 -190 2 -10 28 15 71 68 80 98 157 175 157 158 0 -24 16
-11 39 33 25 47 143 150 270 235 89 60 230 123 336 151 86 23 104 24 425 24
321 0 339 -1 425 -24 176 -47 351 -146 534 -302 72 -62 82 -74 65 -80 -16 -6
-14 -9 19 -23 50 -22 97 -66 182 -170 44 -54 71 -80 73 -70 4 15 -47 80 -138
179 -25 28 -55 69 -66 92 -20 44 -34 55 -34 27 0 -12 -15 -3 -47 27 -189 175
-397 296 -595 345 -90 22 -122 25 -346 27 -136 1 -287 -1 -337 -4z"/>
<path d="M992 1029 c-184 -24 -404 -205 -515 -424 -8 -16 -31 -46 -51 -64 -42
-40 -45 -51 -13 -43 18 4 20 3 11 -9 -32 -42 -97 -290 -109 -417 -6 -60 -5
-72 8 -72 11 0 15 19 20 83 8 120 91 423 108 395 12 -19 20 -5 26 44 9 65 47
135 135 242 92 113 239 212 350 235 65 14 611 14 676 0 168 -35 366 -209 467
-409 27 -53 29 -61 18 -59 -25 4 -23 -5 8 -38 55 -58 116 -256 126 -410 4 -64
9 -83 20 -83 13 0 14 12 8 73 -8 85 -48 260 -75 335 -11 29 -20 75 -20 102 0
50 -13 73 -24 43 -5 -12 -13 -4 -32 33 -117 223 -281 372 -479 436 -35 11
-585 17 -663 7z"/>
<path d="M973 951 c-67 -19 -131 -65 -181 -129 -55 -69 -102 -201 -102 -286 0
-18 -9 -58 -19 -90 -19 -54 -19 -56 -2 -46 17 9 19 4 26 -48 4 -31 18 -91 32
-132 29 -87 107 -220 129 -220 17 0 14 8 -22 55 -33 44 -89 171 -102 230 -22
104 -23 118 -7 111 19 -7 19 4 -1 55 -14 35 -15 52 -6 119 17 120 56 204 127
275 48 48 73 65 118 79 72 23 107 24 235 6 87 -12 117 -12 205 0 56 8 119 14
139 13 167 -5 305 -151 338 -358 15 -93 13 -128 -6 -121 -12 5 -15 2 -9 -11
15 -39 17 -114 5 -164 -15 -64 -72 -191 -104 -234 -35 -47 -39 -55 -22 -55 19
0 90 114 121 195 13 36 29 93 35 126 6 34 17 71 25 83 7 12 16 32 20 46 6 20
5 23 -6 13 -23 -23 -29 -14 -29 47 0 140 -50 263 -145 356 -97 96 -178 114
-380 87 -63 -9 -111 -9 -160 -3 -145 20 -188 20 -252 1z"/>
<path d="M970 902 c-23 -11 -46 -37 -70 -77 -32 -55 -35 -66 -35 -140 1 -74 4
-87 43 -166 23 -48 42 -92 42 -100 0 -9 4 -8 13 4 11 15 17 13 65 -19 63 -43
152 -72 242 -81 84 -7 209 24 293 73 32 19 76 42 96 50 28 13 32 17 19 23 -16
5 -15 11 12 51 61 92 63 216 7 311 -36 60 -81 89 -136 89 -19 0 -74 -19 -125
-42 -120 -56 -152 -56 -272 0 -99 46 -141 51 -194 24z m113 -20 c16 -7 14 -11
-13 -37 -25 -24 -33 -27 -40 -15 -6 10 -4 20 6 31 14 16 14 18 -3 22 -13 3
-11 5 7 5 14 0 33 -3 43 -6z m520 0 c16 -7 14 -11 -13 -37 -25 -24 -33 -27
-40 -15 -6 10 -4 20 6 31 14 16 14 18 -3 22 -13 3 -11 5 7 5 14 0 33 -3 43 -6z
m-483 -77 c-13 -14 -28 -25 -34 -25 -5 0 3 13 19 30 16 16 31 28 33 25 3 -3
-5 -16 -18 -30z m120 14 l56 -20 63 21 c35 11 65 19 67 17 3 -2 0 -16 -5 -30
-7 -19 -6 -38 5 -70 18 -54 36 -72 92 -91 37 -13 47 -13 84 0 53 18 67 31 87
74 l16 35 3 -60 c2 -33 -2 -78 -8 -101 -12 -41 -59 -110 -60 -86 0 25 -17 11
-36 -29 -48 -108 -285 -164 -455 -107 -73 24 -168 81 -144 86 25 6 17 17 -28
39 -59 28 -80 74 -85 178 -4 84 -1 88 26 33 19 -36 78 -71 122 -71 89 0 164
99 136 181 -9 27 -7 27 64 1z m400 -14 c-13 -14 -28 -25 -34 -25 -5 0 3 13 19
30 16 16 31 28 33 25 3 -3 -5 -16 -18 -30z"/>
</g>
</svg>
